<svg width="160" height="160" version="1.1" xmlns="http://www.w3.org/2000/svg" desc="Created with imagetracer.js version 1.2.6" ><path fill="rgb(199,119,9)" stroke="rgb(199,119,9)" stroke-width="1" opacity="0.7725490196078432" d="M 74.5 15 L 75.5 17 L 74.5 15 Z " /><path fill="rgb(199,119,9)" stroke="rgb(199,119,9)" stroke-width="1" opacity="0.7725490196078432" d="M 56.5 21 L 61 28.5 L 87 60.5 Q 89.8 62.2 89 67.5 L 88 67.5 L 86 62.5 L 60 29.5 L 56 22.5 L 56.5 21 Z " /><path fill="rgb(199,119,9)" stroke="rgb(199,119,9)" stroke-width="1" opacity="0.7725490196078432" d="M 30.5 31 L 75 81.5 L 76 85.5 L 74 86.5 L 75 84.5 L 31 34.5 L 30.5 31 Z " /><path fill="rgb(199,119,9)" stroke="rgb(199,119,9)" stroke-width="1" opacity="0.7725490196078432" d="M 156.5 45 L 156 46.5 L 153.5 52 L 153 50.5 L 156.5 45 Z " /><path fill="rgb(199,119,9)" stroke="rgb(199,119,9)" stroke-width="1" opacity="0.7725490196078432" d="M 128.5 55 L 129 59.5 L 128 59.5 L 128.5 55 Z " /><path fill="rgb(199,119,9)" stroke="rgb(199,119,9)" stroke-width="1" opacity="0.7725490196078432" d="M 21.5 59 L 66 105.5 L 36 76.5 L 22 61.5 L 21.5 59 Z " /><path fill="rgb(199,119,9)" stroke="rgb(199,119,9)" stroke-width="1" opacity="0.7725490196078432" d="M 127.5 61 L 128 62.5 L 126 63.5 L 127.5 61 Z " /><path fill="rgb(199,119,9)" stroke="rgb(199,119,9)" stroke-width="1" opacity="0.7725490196078432" d="M 51.5 63 L 53.5 66 L 51.5 63 Z " /><path fill="rgb(199,119,9)" stroke="rgb(199,119,9)" stroke-width="1" opacity="0.7725490196078432" d="M 82.5 63 L 86.5 68 L 82.5 63 Z " /><path fill="rgb(199,119,9)" stroke="rgb(199,119,9)" stroke-width="1" opacity="0.7725490196078432" d="M 125.5 65 L 124.5 67 L 125.5 65 Z " /><path fill="rgb(199,119,9)" stroke="rgb(199,119,9)" stroke-width="1" opacity="0.7725490196078432" d="M 148.5 65 L 149 71.5 L 148 71.5 L 148.5 65 Z " /><path fill="rgb(199,119,9)" stroke="rgb(199,119,9)" stroke-width="1" opacity="0.7725490196078432" d="M 148.5 73 L 149 76.5 L 148 76.5 L 148.5 73 Z " /><path fill="rgb(199,119,9)" stroke="rgb(199,119,9)" stroke-width="1" opacity="0.7725490196078432" d="M 64.5 77 L 72.5 86 L 64.5 77 Z " /><path fill="rgb(199,119,9)" stroke="rgb(199,119,9)" stroke-width="1" opacity="0.7725490196078432" d="M 149.5 78 L 150 80.5 L 149 80.5 L 149.5 78 Z " /><path fill="rgb(199,119,9)" stroke="rgb(199,119,9)" stroke-width="1" opacity="0.7725490196078432" d="M 150.5 83 L 151 87.5 L 150 87.5 L 150.5 83 Z " /><path fill="rgb(199,119,9)" stroke="rgb(199,119,9)" stroke-width="1" opacity="0.7725490196078432" d="M 40.5 86 L 41.5 88 L 40.5 86 Z " /><path fill="rgb(199,119,9)" stroke="rgb(199,119,9)" stroke-width="1" opacity="0.7725490196078432" d="M 151.5 93 L 152 95.5 L 151 95.5 L 151.5 93 Z " /><path fill="rgb(199,119,9)" stroke="rgb(199,119,9)" stroke-width="1" opacity="0.7725490196078432" d="M 24.5 94 L 36.5 107 Q 60 129.5 86.5 149 L 98.5 154 L 109.5 154 Q 125.7 149.2 135.5 138 L 136 139.5 L 132 142 L 133 144.5 Q 123.1 156.1 102.5 157 L 90.5 154 L 82.5 149 L 27 99.5 L 24 95.5 L 24.5 94 Z M 131 144 L 129 147 L 132 145 L 131 144 Z " /><path fill="rgb(199,119,9)" stroke="rgb(199,119,9)" stroke-width="1" opacity="0.7725490196078432" d="M 50.5 95 L 53.5 99 L 50.5 95 Z " /><path fill="rgb(199,119,9)" stroke="rgb(199,119,9)" stroke-width="1" opacity="0.7725490196078432" d="M 152.5 103 L 153 107.5 L 152 107.5 L 152.5 103 Z " /><path fill="rgb(199,119,9)" stroke="rgb(199,119,9)" stroke-width="1" opacity="0.7725490196078432" d="M 60.5 104 L 66 107.5 L 63.5 108 L 60.5 104 Z " /><path fill="rgb(199,119,9)" stroke="rgb(199,119,9)" stroke-width="1" opacity="0.7725490196078432" d="M 152.5 110 L 153 113.5 L 152 113.5 L 152.5 110 Z " /><path fill="rgb(199,119,9)" stroke="rgb(199,119,9)" stroke-width="1" opacity="0.7725490196078432" d="M 148.5 126 L 148 127.5 L 146.5 130 L 147 128.5 L 148.5 126 Z " /><path fill="rgb(199,119,9)" stroke="rgb(199,119,9)" stroke-width="1" opacity="0.7725490196078432" d="M 145.5 131 L 143.5 134 L 145.5 131 Z " /><path fill="rgb(199,119,9)" stroke="rgb(199,119,9)" stroke-width="1" opacity="0.7725490196078432" d="M 142.5 135 L 134.5 144 L 142.5 135 Z " /><path fill="rgb(112,106,98)" stroke="rgb(112,106,98)" stroke-width="1" opacity="0.7372549019607844" d="M 95.5 0 L 108 10.5 Q 118.5 22.3 123 39 Q 117.6 40.5 116 37.5 Q 110.8 19.8 98.5 9 L 93 6 L 95.5 0 Z " /><path fill="rgb(112,106,98)" stroke="rgb(112,106,98)" stroke-width="1" opacity="0.7372549019607844" d="M 87 11 Q 95.7 12.9 100 20.5 Q 107.2 29.4 110 41 L 105.5 42 L 98 26.5 L 89.5 17 L 86 14.5 L 87 11 Z " /><path fill="rgb(112,106,98)" stroke="rgb(112,106,98)" stroke-width="1" opacity="0.7372549019607844" d="M 13.5 99 Q 18.9 97.1 18 100.5 Q 23.8 111.7 33.5 119 L 40 122 Q 41 125.8 38.5 127 Q 27.7 122.8 21 114.5 L 12 100.5 L 13.5 99 Z " /><path fill="rgb(112,106,98)" stroke="rgb(112,106,98)" stroke-width="1" opacity="0.7372549019607844" d="M 4.5 103 L 7 104.5 Q 13.1 118.4 24.5 127 L 35 133.5 L 34 138 Q 18 132.8 9 119.5 Q 2.5 113 0 104 L 4.5 103 Z " /><path fill="rgb(134,89,21)" stroke="rgb(134,89,21)" stroke-width="1" opacity="0.01568627450980392" d="M 100.5 3 L 101.5 5 L 100.5 3 Z " /><path fill="rgb(134,89,21)" stroke="rgb(134,89,21)" stroke-width="1" opacity="0.01568627450980392" d="M 98.5 9 L 102.5 14 L 98.5 9 Z " /><path fill="rgb(134,89,21)" stroke="rgb(134,89,21)" stroke-width="1" opacity="0.01568627450980392" d="M 90.5 11 L 91.5 13 L 90.5 11 Z " /><path fill="rgb(134,89,21)" stroke="rgb(134,89,21)" stroke-width="1" opacity="0.01568627450980392" d="M 108.5 11 L 109.5 13 L 108.5 11 Z " /><path fill="rgb(134,89,21)" stroke="rgb(134,89,21)" stroke-width="1" opacity="0.01568627450980392" d="M 93.5 21 L 94.5 23 L 93.5 21 Z " /><path fill="rgb(134,89,21)" stroke="rgb(134,89,21)" stroke-width="1" opacity="0.01568627450980392" d="M 100.5 21 L 101.5 23 L 100.5 21 Z " /><path fill="rgb(134,89,21)" stroke="rgb(134,89,21)" stroke-width="1" opacity="0.01568627450980392" d="M 57.5 26 L 58.5 28 L 57.5 26 Z " /><path fill="rgb(134,89,21)" stroke="rgb(134,89,21)" stroke-width="1" opacity="0.01568627450980392" d="M 60.5 30 L 61.5 32 L 60.5 30 Z " /><path fill="rgb(134,89,21)" stroke="rgb(134,89,21)" stroke-width="1" opacity="0.01568627450980392" d="M 63.5 34 L 64.5 36 L 63.5 34 Z " /><path fill="rgb(134,89,21)" stroke="rgb(134,89,21)" stroke-width="1" opacity="0.01568627450980392" d="M 31.5 35 L 32.5 37 L 31.5 35 Z " /><path fill="rgb(134,89,21)" stroke="rgb(134,89,21)" stroke-width="1" opacity="0.01568627450980392" d="M 66.5 38 L 67.5 40 L 66.5 38 Z " /><path fill="rgb(134,89,21)" stroke="rgb(134,89,21)" stroke-width="1" opacity="0.01568627450980392" d="M 36.5 41 L 41.5 47 L 36.5 41 Z " /><path fill="rgb(134,89,21)" stroke="rgb(134,89,21)" stroke-width="1" opacity="0.01568627450980392" d="M 107.5 41 L 110 41.5 L 107.5 42 L 107.5 41 Z " /><path fill="rgb(134,89,21)" stroke="rgb(134,89,21)" stroke-width="1" opacity="0.01568627450980392" d="M 69.5 42 L 70.5 44 L 69.5 42 Z " /><path fill="rgb(134,89,21)" stroke="rgb(134,89,21)" stroke-width="1" opacity="0.01568627450980392" d="M 72.5 46 L 74.5 49 L 72.5 46 Z " /><path fill="rgb(134,89,21)" stroke="rgb(134,89,21)" stroke-width="1" opacity="0.01568627450980392" d="M 44.5 50 L 48.5 55 L 44.5 50 Z " /><path fill="rgb(134,89,21)" stroke="rgb(134,89,21)" stroke-width="1" opacity="0.01568627450980392" d="M 76.5 51 L 77.5 53 L 76.5 51 Z " /><path fill="rgb(134,89,21)" stroke="rgb(134,89,21)" stroke-width="1" opacity="0.01568627450980392" d="M 79.5 55 L 80.5 57 L 79.5 55 Z " /><path fill="rgb(134,89,21)" stroke="rgb(134,89,21)" stroke-width="1" opacity="0.01568627450980392" d="M 52.5 59 L 55.5 63 L 52.5 59 Z " /><path fill="rgb(134,89,21)" stroke="rgb(134,89,21)" stroke-width="1" opacity="0.01568627450980392" d="M 82.5 59 L 84.5 62 L 82.5 59 Z " /><path fill="rgb(134,89,21)" stroke="rgb(134,89,21)" stroke-width="1" opacity="0.01568627450980392" d="M 21.5 61 L 23.5 64 L 21.5 61 Z " /><path fill="rgb(134,89,21)" stroke="rgb(134,89,21)" stroke-width="1" opacity="0.01568627450980392" d="M 86.5 64 L 87.5 66 L 86.5 64 Z " /><path fill="rgb(134,89,21)" stroke="rgb(134,89,21)" stroke-width="1" opacity="0.01568627450980392" d="M 25.5 65 L 27.5 68 L 25.5 65 Z " /><path fill="rgb(134,89,21)" stroke="rgb(134,89,21)" stroke-width="1" opacity="0.01568627450980392" d="M 59.5 67 L 62.5 71 L 59.5 67 Z " /><path fill="rgb(134,89,21)" stroke="rgb(134,89,21)" stroke-width="1" opacity="0.01568627450980392" d="M 66.5 75 L 70.5 80 L 66.5 75 Z " /><path fill="rgb(134,89,21)" stroke="rgb(134,89,21)" stroke-width="1" opacity="0.01568627450980392" d="M 36.5 77 L 49.5 91 L 36.5 77 Z " /><path fill="rgb(134,89,21)" stroke="rgb(134,89,21)" stroke-width="1" opacity="0.01568627450980392" d="M 69.5 81 L 72.5 84 Q 73.8 81.7 75 84.5 L 72.5 85 L 69.5 81 Z " /><path fill="rgb(134,89,21)" stroke="rgb(134,89,21)" stroke-width="1" opacity="0.01568627450980392" d="M 26.5 99 L 31.5 105 L 26.5 99 Z " /><path fill="rgb(134,89,21)" stroke="rgb(134,89,21)" stroke-width="1" opacity="0.01568627450980392" d="M 60.5 103 Q 62.3 106.1 64 104.5 L 62.5 106 L 60.5 103 Z " /><path fill="rgb(134,89,21)" stroke="rgb(134,89,21)" stroke-width="1" opacity="0.01568627450980392" d="M 23.5 108 L 24.5 110 L 23.5 108 Z " /><path fill="rgb(134,89,21)" stroke="rgb(134,89,21)" stroke-width="1" opacity="0.01568627450980392" d="M 38.5 110 L 44.5 117 L 38.5 110 Z " /><path fill="rgb(134,89,21)" stroke="rgb(134,89,21)" stroke-width="1" opacity="0.01568627450980392" d="M 19.5 112 L 20.5 114 L 19.5 112 Z " /><path fill="rgb(134,89,21)" stroke="rgb(134,89,21)" stroke-width="1" opacity="0.01568627450980392" d="M 14.5 116 L 15.5 118 L 14.5 116 Z " /><path fill="rgb(134,89,21)" stroke="rgb(134,89,21)" stroke-width="1" opacity="0.01568627450980392" d="M 7.5 117 L 8.5 119 L 7.5 117 Z " /><path fill="rgb(134,89,21)" stroke="rgb(134,89,21)" stroke-width="1" opacity="0.01568627450980392" d="M 32.5 117 L 33.5 119 L 32.5 117 Z " /><path fill="rgb(134,89,21)" stroke="rgb(134,89,21)" stroke-width="1" opacity="0.01568627450980392" d="M 27.5 120 L 28.5 122 L 27.5 120 Z " /><path fill="rgb(134,89,21)" stroke="rgb(134,89,21)" stroke-width="1" opacity="0.01568627450980392" d="M 49.5 120 L 54.5 126 L 49.5 120 Z " /><path fill="rgb(134,89,21)" stroke="rgb(134,89,21)" stroke-width="1" opacity="0.01568627450980392" d="M 10.5 121 L 18.5 130 L 10.5 121 Z " /><path fill="rgb(134,89,21)" stroke="rgb(134,89,21)" stroke-width="1" opacity="0.01568627450980392" d="M 23.5 125 L 24.5 127 L 23.5 125 Z " /><path fill="rgb(134,89,21)" stroke="rgb(134,89,21)" stroke-width="1" opacity="0.01568627450980392" d="M 27.5 128 L 28.5 130 L 27.5 128 Z " /><path fill="rgb(134,89,21)" stroke="rgb(134,89,21)" stroke-width="1" opacity="0.01568627450980392" d="M 58.5 128 L 62.5 133 L 58.5 128 Z " /><path fill="rgb(134,89,21)" stroke="rgb(134,89,21)" stroke-width="1" opacity="0.01568627450980392" d="M 146.5 131 L 145.5 133 L 146.5 131 Z " /><path fill="rgb(134,89,21)" stroke="rgb(134,89,21)" stroke-width="1" opacity="0.01568627450980392" d="M 66.5 135 L 70.5 140 L 66.5 135 Z " /><path fill="rgb(134,89,21)" stroke="rgb(134,89,21)" stroke-width="1" opacity="0.01568627450980392" d="M 142.5 136 L 135.5 144 L 142.5 136 Z " /><path fill="rgb(134,89,21)" stroke="rgb(134,89,21)" stroke-width="1" opacity="0.01568627450980392" d="M 74.5 142 L 77.5 146 L 74.5 142 Z " /><path fill="rgb(134,89,21)" stroke="rgb(134,89,21)" stroke-width="1" opacity="0.01568627450980392" d="M 131.5 146 L 130.5 148 L 131.5 146 Z " /><path fill="rgb(134,89,21)" stroke="rgb(134,89,21)" stroke-width="1" opacity="0.01568627450980392" d="M 80.5 147 L 82.5 150 L 80.5 147 Z " /><path fill="rgb(134,89,21)" stroke="rgb(134,89,21)" stroke-width="1" opacity="0.01568627450980392" d="M 128.5 148 L 126.5 151 L 124.5 152 L 125.5 150 L 128.5 148 Z " /><path fill="rgb(134,89,21)" stroke="rgb(134,89,21)" stroke-width="1" opacity="0.01568627450980392" d="M 84.5 150 L 85.5 152 L 84.5 150 Z " /><path fill="rgb(134,89,21)" stroke="rgb(134,89,21)" stroke-width="1" opacity="0.01568627450980392" d="M 97.5 156 L 100 156.5 L 97.5 157 L 97.5 156 Z " /><path fill="rgb(134,89,21)" stroke="rgb(134,89,21)" stroke-width="1" opacity="0.01568627450980392" d="M 110.5 156 L 113 156.5 L 110.5 157 L 110.5 156 Z " /><path fill="rgb(134,89,21)" stroke="rgb(134,89,21)" stroke-width="1" opacity="0.01568627450980392" d="M 101.5 157 L 106 157.5 L 101.5 158 L 101.5 157 Z " /><path fill="rgb(0,0,0)" stroke="rgb(0,0,0)" stroke-width="1" opacity="0" d="M 0 0 L 93.5 0 L 94 2.5 L 93 5.5 L 106 17.5 Q 113.6 26.4 116 39 L 123 39 L 123 36.5 Q 115.9 15.6 100.5 3 L 97 0.5 L 160 0 L 160 160 L 0 160 L 0.5 107 Q 7.4 120.6 18.5 130 L 34 139 L 35 132 Q 23.4 128 16 118.5 L 5.5 103 L 0 104 L 0 0 Z M 62 8 L 59 10 L 55 15 Q 54 23 57 27 L 86 65 L 88 67 L 52 26 Q 48 19 40 16 Q 34 15 32 18 L 28 23 L 28 30 L 31 36 L 73 84 L 74 85 L 42 52 L 35 45 L 25 44 L 19 51 Q 18 58 21 62 L 36 78 L 65 107 L 41 85 L 33 81 L 26 83 L 22 88 L 22 93 L 26 100 L 83 150 L 94 156 L 102 158 L 113 157 L 119 155 Q 128 151 136 144 Q 150 134 154 114 L 152 86 L 149 74 L 150 63 L 159 43 L 159 39 L 153 33 Q 143 31 139 35 L 129 46 L 128 58 L 126 64 L 122 67 L 115 65 L 104 54 L 78 18 Q 74 9 62 8 Z M 87 10 L 86 15 L 91 18 Q 100 26 104 40 L 104 42 L 110 42 Q 108 30 102 23 L 91 11 L 87 10 Z M 17 98 L 12 99 L 12 102 L 19 113 Q 26 123 40 127 L 41 122 L 32 117 Q 22 109 17 98 Z " /><path fill="rgb(241,182,39)" stroke="rgb(241,182,39)" stroke-width="1" opacity="1" d="M 60.5 10 Q 70.3 8.3 72 14.5 L 93 45.5 L 114.5 69 L 121.5 71 L 129 66.5 Q 132.9 61.4 132.5 52 L 133 59.5 Q 131.4 66.5 126.5 70 L 119.5 72 L 112.5 69 L 100 56.5 Q 96.5 48 89 43.5 L 83 32.5 L 77 26.5 L 72 16.5 L 66.5 11 Q 60.8 9.7 59.5 13 L 59 11.5 L 60.5 10 Z " /><path fill="rgb(241,182,39)" stroke="rgb(241,182,39)" stroke-width="1" opacity="1" d="M 58.5 14 L 62 22.5 L 73 35.5 L 86 54.5 L 84 53.5 Q 73.5 36 60 21.5 L 58.5 14 Z " /><path fill="rgb(241,182,39)" stroke="rgb(241,182,39)" stroke-width="1" opacity="1" d="M 34.5 18 L 41.5 19 L 49 26.5 L 55 35.5 L 80 62.5 L 67 50.5 L 57.5 39 L 54 36.5 L 42.5 21 Q 40.2 18.3 34.5 19 Q 30.8 20.3 32 26.5 L 76 76.5 L 79 83.5 L 78 83.5 L 76 78.5 L 35 32.5 L 31 26.5 L 31 21.5 L 32 19 L 34.5 18 Z " /><path fill="rgb(241,182,39)" stroke="rgb(241,182,39)" stroke-width="1" opacity="1" d="M 147.5 34 Q 153.9 34.1 156 38.5 L 153 46.5 L 147 55.5 L 146 62.5 L 144 65.5 L 144 73.5 L 147 88.5 L 147 108.5 L 143 111.5 L 140 117.5 L 126.5 131 L 108.5 145 L 101.5 147 L 93.5 147 L 88.5 146 L 78.5 140 L 26 92.5 L 24 87.5 L 26.5 84 L 26 85.5 L 25 87.5 Q 26.4 93.6 31.5 96 L 40 101 L 46.5 109 L 51 111 L 51 112.5 L 59.5 121 L 63.5 123 L 80.5 140 L 91.5 144 L 100.5 144 L 105.5 143 L 116 137 L 125.5 124 Q 133.5 121.5 138 115.5 L 142 106.5 L 143 95.5 L 142 94.5 L 142 78.5 L 140 71.5 L 140 58.5 L 146.5 50 L 153 44.5 L 154 38.5 Q 152.3 35.3 147.5 35 L 147.5 34 Z " /><path fill="rgb(241,182,39)" stroke="rgb(241,182,39)" stroke-width="1" opacity="1" d="M 141.5 36 L 143 36.5 L 138 40.5 L 133.5 51 L 133 46.5 L 141.5 36 Z " /><path fill="rgb(241,182,39)" stroke="rgb(241,182,39)" stroke-width="1" opacity="1" d="M 26.5 45 L 31.5 46 L 43 56.5 L 45.5 60 L 48 61.5 L 72 87.5 L 69.5 86 Q 67.3 86.8 68 84.5 L 32.5 48 Q 31.1 45.4 26.5 46 L 26.5 45 Z " /><path fill="rgb(241,182,39)" stroke="rgb(241,182,39)" stroke-width="1" opacity="1" d="M 24.5 46 L 24 47.5 L 23 52.5 L 48.5 81 Q 50.8 80.3 50 82.5 L 62.5 96 L 68 100.5 Q 70.8 102.2 70 107.5 L 68.5 110 L 68 108.5 L 69 103.5 L 64.5 98 L 55 90.5 L 24 57.5 Q 21.2 54.8 22 48.5 L 24.5 46 Z " /><path fill="rgb(241,182,39)" stroke="rgb(241,182,39)" stroke-width="1" opacity="1" d="M 86.5 56 L 93 64.5 L 93 69.5 Q 92.3 71.8 88.5 71 L 88.5 70 Q 94.6 71.8 92 64.5 L 86.5 56 Z " /><path fill="rgb(241,182,39)" stroke="rgb(241,182,39)" stroke-width="1" opacity="1" d="M 80.5 64 L 83 68 L 87 69.5 L 85.5 70 L 82 67.5 L 80.5 64 Z " /><path fill="rgb(241,182,39)" stroke="rgb(241,182,39)" stroke-width="1" opacity="1" d="M 28.5 83 L 34.5 84 L 59.5 107 L 64 109.5 L 62.5 110 L 34.5 85 L 28.5 84 L 28.5 83 Z " /><path fill="rgb(236,174,42)" stroke="rgb(236,174,42)" stroke-width="1" opacity="0.8235294117647058" d="M 61.5 9 L 67 9.5 L 61.5 10 L 61.5 9 Z " /><path fill="rgb(236,174,42)" stroke="rgb(236,174,42)" stroke-width="1" opacity="0.8235294117647058" d="M 71.5 12 L 72.5 14 L 71.5 12 Z " /><path fill="rgb(236,174,42)" stroke="rgb(236,174,42)" stroke-width="1" opacity="0.8235294117647058" d="M 35.5 17 L 40 17.5 L 35.5 18 L 35.5 17 Z " /><path fill="rgb(236,174,42)" stroke="rgb(236,174,42)" stroke-width="1" opacity="0.8235294117647058" d="M 31.5 19 L 30.5 21 L 31.5 19 Z " /><path fill="rgb(236,174,42)" stroke="rgb(236,174,42)" stroke-width="1" opacity="0.8235294117647058" d="M 154.5 35 L 157.5 39 L 154.5 35 Z " /><path fill="rgb(236,174,42)" stroke="rgb(236,174,42)" stroke-width="1" opacity="0.8235294117647058" d="M 24.5 45 L 26 45.5 L 23.5 47 L 24.5 45 Z " /><path fill="rgb(236,174,42)" stroke="rgb(236,174,42)" stroke-width="1" opacity="0.8235294117647058" d="M 29.5 82 L 33 82.5 L 29.5 83 L 29.5 82 Z " /><path fill="rgb(236,174,42)" stroke="rgb(236,174,42)" stroke-width="1" opacity="0.8235294117647058" d="M 25.5 84 L 24.5 86 L 25.5 84 Z " /><path fill="rgb(254,207,76)" stroke="rgb(254,207,76)" stroke-width="1" opacity="1" d="M 61.5 13 Q 66.3 11.3 65 15.5 Q 68.3 16.8 67 22.5 L 65.5 22 Q 63.3 22.8 64 20.5 L 61.5 13 Z " /><path fill="rgb(254,207,76)" stroke="rgb(254,207,76)" stroke-width="1" opacity="1" d="M 35 21 L 37.5 21 L 44 26.5 L 43 31 Q 39.2 31.8 38 28.5 L 35 21 Z " /><path fill="rgb(254,207,76)" stroke="rgb(254,207,76)" stroke-width="1" opacity="1" d="M 76.5 36 L 80 38.5 Q 81.1 41.8 78.5 41 Q 74.8 39.2 76.5 36 Z " /><path fill="rgb(254,207,76)" stroke="rgb(254,207,76)" stroke-width="1" opacity="1" d="M 145.5 37 L 151 40.5 Q 151.5 44.5 148.5 45 L 144.5 45 L 140 49.5 Q 139.8 54.3 136.5 56 Q 133.5 56.5 135 49.5 L 141.5 39 L 145.5 37 Z " /><path fill="rgb(254,207,76)" stroke="rgb(254,207,76)" stroke-width="1" opacity="1" d="M 56.5 42 L 61 45.5 L 62 48.5 L 57.5 52 L 53 48.5 L 52 46.5 L 56.5 42 Z " /><path fill="rgb(254,207,76)" stroke="rgb(254,207,76)" stroke-width="1" opacity="1" d="M 26.5 48 L 34 52.5 L 33 56 L 28 55 L 26 50.5 L 26.5 48 Z " /><path fill="rgb(254,207,76)" stroke="rgb(254,207,76)" stroke-width="1" opacity="1" d="M 89.5 50 L 93 51 L 101.5 68 Q 103.8 67.3 103 69.5 Q 106.5 71 104 72.5 L 104 74 L 102 74 Q 103.1 76.7 100.5 76 L 96 82.5 L 94 89.5 L 94 94.5 Q 95.3 97.3 100.5 96 L 101.5 95 L 112.5 94 L 116 91.5 L 123 73.5 L 125.5 71 L 133 64.5 L 133.5 63 L 135 64.5 L 135 72.5 L 138 88.5 L 138 102.5 L 136 109.5 L 131.5 114 Q 128.5 117 122.5 117 L 115.5 114 L 112 116 L 112 121.5 L 114 126.5 L 113 130.5 L 107.5 136 Q 102.3 140.8 90.5 139 Q 81.6 136.4 76 130.5 L 67.5 115 L 63.5 114 L 61.5 115 L 57 111.5 L 56 109.5 L 58.5 109 L 63.5 113 L 70.5 113 Q 73.5 111.5 72 105.5 L 68 97 L 56 87.5 L 55 82.5 L 59.5 79 L 64 82.5 L 70.5 90 Q 78.3 91.8 80 87.5 L 81 84.5 L 77 74 Q 71.4 72.5 68 67.5 L 67 62.5 L 70 58 L 77 62.5 L 84.5 72 Q 93 74 95 69.5 L 96 66.5 L 86 52.5 L 89.5 50 Z M 88 53 L 88 56 L 92 58 Q 95 59 93 55 L 88 53 Z M 73 60 L 69 65 Q 69 70 73 70 Q 77 71 78 68 L 76 63 L 73 60 Z M 131 69 L 126 72 L 121 85 L 117 103 L 117 105 L 118 110 L 124 113 L 130 112 L 134 108 L 136 101 L 136 90 L 135 89 L 133 71 L 131 69 Z M 87 74 L 82 80 L 81 91 L 90 88 L 94 81 L 94 75 Q 92 73 87 74 Z M 61 82 L 60 83 Q 57 82 58 86 L 57 87 L 61 90 L 63 89 L 64 85 L 61 82 Z M 74 92 L 72 94 L 72 103 L 77 111 L 76 116 L 73 118 L 73 122 L 76 128 Q 81 135 92 137 Q 102 138 107 133 L 110 129 L 109 124 L 107 121 L 97 118 L 93 115 L 94 114 L 92 109 L 87 107 L 85 106 L 84 99 L 81 95 Q 78 96 79 93 L 74 92 Z " /><path fill="rgb(254,207,76)" stroke="rgb(254,207,76)" stroke-width="1" opacity="1" d="M 45.5 65 L 48 66 L 50 69.5 L 47.5 75 L 43 71.5 L 42 69.5 L 44 69 L 45.5 65 Z " /><path fill="rgb(254,207,76)" stroke="rgb(254,207,76)" stroke-width="1" opacity="1" d="M 29.5 86 Q 33.9 84.5 33 87.5 L 34.5 90 Q 31.9 90.7 33 88 L 31 88 L 30.5 90 L 30 88 L 28 87.5 L 29.5 86 Z " /><path fill="rgb(254,207,76)" stroke="rgb(254,207,76)" stroke-width="1" opacity="1" d="M 46 99 L 53 104.5 L 49 105 L 49 103 Q 46.3 104.1 47 101.5 L 46 99 Z " /><path fill="rgb(254,207,76)" stroke="rgb(254,207,76)" stroke-width="1" opacity="1" d="M 82.5 113 L 86 114.5 L 84.5 118 L 82.5 119 Q 80.3 118.3 81 114.5 L 82.5 113 Z " /><path fill="rgb(224,152,22)" stroke="rgb(224,152,22)" stroke-width="1" opacity="0.4117647058823529" d="M 61.5 8 Q 73.9 8.6 78 17.5 Q 94.3 43.2 114.5 65 L 118 66.5 L 116.5 67 L 107 58.5 L 80 21.5 L 71.5 12 Q 68.9 8.1 61.5 9 L 58 11 Q 55 13.8 55.5 21 L 55 14.5 L 58.5 10 L 61.5 8 Z " /><path fill="rgb(224,152,22)" stroke="rgb(224,152,22)" stroke-width="1" opacity="0.4117647058823529" d="M 35.5 16 L 42.5 17 L 52 25.5 L 88 67.5 L 77 57.5 L 46.5 21 Q 43.3 16.7 35.5 17 L 30 20.5 L 28.5 29 L 28 22.5 L 31.5 18 L 35.5 16 Z " /><path fill="rgb(224,152,22)" stroke="rgb(224,152,22)" stroke-width="1" opacity="0.4117647058823529" d="M 142.5 33 Q 155.8 30.7 159 38.5 L 158.5 43 Q 158.9 36.6 154.5 35 L 143.5 34 Q 135.4 36.9 131 43.5 L 130.5 45 L 130 43.5 Q 134.3 36.3 142.5 33 Z " /><path fill="rgb(224,152,22)" stroke="rgb(224,152,22)" stroke-width="1" opacity="0.4117647058823529" d="M 65.5 36 L 66.5 38 L 65.5 36 Z " /><path fill="rgb(224,152,22)" stroke="rgb(224,152,22)" stroke-width="1" opacity="0.4117647058823529" d="M 33.5 37 L 35.5 40 L 33.5 37 Z " /><path fill="rgb(224,152,22)" stroke="rgb(224,152,22)" stroke-width="1" opacity="0.4117647058823529" d="M 24.5 44 L 34.5 45 L 42 51.5 L 69 80.5 L 54 66.5 L 35.5 47 Q 32.2 43.8 24.5 45 Q 19.1 47.6 19.5 56 L 19 50.5 L 24.5 44 Z " /><path fill="rgb(224,152,22)" stroke="rgb(224,152,22)" stroke-width="1" opacity="0.4117647058823529" d="M 71.5 44 L 72.5 46 L 71.5 44 Z " /><path fill="rgb(224,152,22)" stroke="rgb(224,152,22)" stroke-width="1" opacity="0.4117647058823529" d="M 42.5 47 L 43.5 49 L 42.5 47 Z " /><path fill="rgb(224,152,22)" stroke="rgb(224,152,22)" stroke-width="1" opacity="0.4117647058823529" d="M 128.5 49 L 129 54.5 L 128 54.5 L 128.5 49 Z " /><path fill="rgb(224,152,22)" stroke="rgb(224,152,22)" stroke-width="1" opacity="0.4117647058823529" d="M 49.5 55 L 51.5 58 L 49.5 55 Z " /><path fill="rgb(224,152,22)" stroke="rgb(224,152,22)" stroke-width="1" opacity="0.4117647058823529" d="M 19.5 57 L 20.5 59 L 19.5 57 Z " /><path fill="rgb(224,152,22)" stroke="rgb(224,152,22)" stroke-width="1" opacity="0.4117647058823529" d="M 56.5 63 L 58.5 66 L 56.5 63 Z " /><path fill="rgb(224,152,22)" stroke="rgb(224,152,22)" stroke-width="1" opacity="0.4117647058823529" d="M 125.5 64 L 123.5 67 L 125.5 64 Z " /><path fill="rgb(224,152,22)" stroke="rgb(224,152,22)" stroke-width="1" opacity="0.4117647058823529" d="M 28.5 68 L 35.5 76 L 28.5 68 Z " /><path fill="rgb(224,152,22)" stroke="rgb(224,152,22)" stroke-width="1" opacity="0.4117647058823529" d="M 63.5 71 L 66 74.5 L 65 74.5 L 63.5 71 Z " /><path fill="rgb(224,152,22)" stroke="rgb(224,152,22)" stroke-width="1" opacity="0.4117647058823529" d="M 71.5 80 L 72.5 82 L 71.5 80 Z " /><path fill="rgb(224,152,22)" stroke="rgb(224,152,22)" stroke-width="1" opacity="0.4117647058823529" d="M 30.5 81 L 37.5 83 L 51 94.5 L 49.5 95 L 40.5 86 Q 37 82.5 30.5 82 L 30.5 81 Z " /><path fill="rgb(224,152,22)" stroke="rgb(224,152,22)" stroke-width="1" opacity="0.4117647058823529" d="M 27.5 82 L 29 82.5 L 24 85.5 L 22.5 92 L 22 87.5 L 25.5 83 L 27.5 82 Z " /><path fill="rgb(224,152,22)" stroke="rgb(224,152,22)" stroke-width="1" opacity="0.4117647058823529" d="M 151.5 87 L 152 92.5 L 151 92.5 L 151.5 87 Z " /><path fill="rgb(224,152,22)" stroke="rgb(224,152,22)" stroke-width="1" opacity="0.4117647058823529" d="M 50.5 91 L 62.5 104 L 50.5 91 Z " /><path fill="rgb(224,152,22)" stroke="rgb(224,152,22)" stroke-width="1" opacity="0.4117647058823529" d="M 52.5 96 L 59.5 104 L 52.5 96 Z " /><path fill="rgb(224,152,22)" stroke="rgb(224,152,22)" stroke-width="1" opacity="0.4117647058823529" d="M 152.5 96 L 153 102.5 L 152 102.5 L 152.5 96 Z " /><path fill="rgb(224,152,22)" stroke="rgb(224,152,22)" stroke-width="1" opacity="0.4117647058823529" d="M 25.5 97 L 26.5 99 L 25.5 97 Z " /><path fill="rgb(224,152,22)" stroke="rgb(224,152,22)" stroke-width="1" opacity="0.4117647058823529" d="M 153.5 104 L 154 113.5 L 152.5 117 L 152 114.5 L 153 113.5 L 153.5 104 Z " /><path fill="rgb(224,152,22)" stroke="rgb(224,152,22)" stroke-width="1" opacity="0.4117647058823529" d="M 33.5 105 L 37.5 110 L 33.5 105 Z " /><path fill="rgb(224,152,22)" stroke="rgb(224,152,22)" stroke-width="1" opacity="0.4117647058823529" d="M 64.5 105 L 65.5 107 L 63 106.5 L 64.5 105 Z " /><path fill="rgb(224,152,22)" stroke="rgb(224,152,22)" stroke-width="1" opacity="0.4117647058823529" d="M 45.5 116 L 48.5 120 L 45.5 116 Z " /><path fill="rgb(224,152,22)" stroke="rgb(224,152,22)" stroke-width="1" opacity="0.4117647058823529" d="M 55.5 125 L 57.5 128 L 55.5 125 Z " /><path fill="rgb(224,152,22)" stroke="rgb(224,152,22)" stroke-width="1" opacity="0.4117647058823529" d="M 64.5 133 L 65.5 135 L 64.5 133 Z " /><path fill="rgb(224,152,22)" stroke="rgb(224,152,22)" stroke-width="1" opacity="0.4117647058823529" d="M 144.5 133 L 143.5 135 L 144.5 133 Z " /><path fill="rgb(224,152,22)" stroke="rgb(224,152,22)" stroke-width="1" opacity="0.4117647058823529" d="M 72.5 140 L 73.5 142 L 72.5 140 Z " /><path fill="rgb(224,152,22)" stroke="rgb(224,152,22)" stroke-width="1" opacity="0.4117647058823529" d="M 133.5 144 L 132.5 146 L 133.5 144 Z " /><path fill="rgb(224,152,22)" stroke="rgb(224,152,22)" stroke-width="1" opacity="0.4117647058823529" d="M 78.5 145 L 79.5 147 L 78.5 145 Z " /><path fill="rgb(249,193,47)" stroke="rgb(249,193,47)" stroke-width="1" opacity="0.9882352941176471" d="M 69.5 14 L 71.5 17 L 69.5 14 Z " /><path fill="rgb(249,193,47)" stroke="rgb(249,193,47)" stroke-width="1" opacity="0.9882352941176471" d="M 72.5 18 L 77 26.5 L 87 38.5 L 89 43.5 L 112.5 69 L 120 72.5 L 118.5 73 L 112.5 70 L 101 59.5 L 92.5 48 L 87 44.5 L 86 38.5 L 79.5 31 Q 75.8 31.8 75 29.5 L 76 25.5 L 72.5 18 Z " /><path fill="rgb(249,193,47)" stroke="rgb(249,193,47)" stroke-width="1" opacity="0.9882352941176471" d="M 42.5 21 L 45.5 25 L 42.5 21 Z " /><path fill="rgb(249,193,47)" stroke="rgb(249,193,47)" stroke-width="1" opacity="0.9882352941176471" d="M 46.5 26 L 47.5 28 L 46.5 26 Z " /><path fill="rgb(249,193,47)" stroke="rgb(249,193,47)" stroke-width="1" opacity="0.9882352941176471" d="M 48.5 29 L 56.5 39 L 63 44.5 L 67 49.5 L 62 45.5 L 57.5 40 L 53 38 L 48.5 29 Z " /><path fill="rgb(249,193,47)" stroke="rgb(249,193,47)" stroke-width="1" opacity="0.9882352941176471" d="M 68.5 30 L 72 32.5 L 73 34.5 L 68.5 30 Z " /><path fill="rgb(249,193,47)" stroke="rgb(249,193,47)" stroke-width="1" opacity="0.9882352941176471" d="M 41.5 36 L 50 43.5 L 49.5 46 L 41.5 36 Z " /><path fill="rgb(249,193,47)" stroke="rgb(249,193,47)" stroke-width="1" opacity="0.9882352941176471" d="M 32.5 48 L 33.5 50 L 32.5 48 Z " /><path fill="rgb(249,193,47)" stroke="rgb(249,193,47)" stroke-width="1" opacity="0.9882352941176471" d="M 67.5 51 L 79.5 64 L 70 56 L 67.5 51 Z " /><path fill="rgb(249,193,47)" stroke="rgb(249,193,47)" stroke-width="1" opacity="0.9882352941176471" d="M 37.5 53 L 52.5 69 L 37.5 53 Z " /><path fill="rgb(249,193,47)" stroke="rgb(249,193,47)" stroke-width="1" opacity="0.9882352941176471" d="M 24.5 54 L 25.5 56 L 24.5 54 Z " /><path fill="rgb(249,193,47)" stroke="rgb(249,193,47)" stroke-width="1" opacity="0.9882352941176471" d="M 142.5 54 L 142 55.5 L 140 58.5 L 140 71.5 L 142 78.5 L 143 100.5 L 140 112.5 L 133.5 120 Q 125.5 122.5 121 128.5 L 116 137 L 105.5 143 L 91.5 144 L 80.5 140 L 51 112.5 Q 51.8 110.3 49.5 111 L 40 102.5 Q 40.8 100.3 38.5 101 L 28 92.5 L 31.5 95 L 42 99.5 Q 41.9 105.1 45.5 107 L 52 110.5 L 57.5 118 L 68 123 L 76 135 L 87.5 141 L 101.5 142 Q 111.4 138.9 117 131.5 Q 117.9 124.9 122.5 122 Q 131.7 120.7 136 114.5 L 140 107.5 L 141 92.5 L 140 91.5 L 140 81.5 L 138 73.5 L 138 71.5 L 138 59.5 L 142.5 54 Z " /><path fill="rgb(249,193,47)" stroke="rgb(249,193,47)" stroke-width="1" opacity="0.9882352941176471" d="M 28.5 59 Q 30.8 58.3 30 60.5 L 39 68.5 L 38.5 70 L 28.5 59 Z " /><path fill="rgb(249,193,47)" stroke="rgb(249,193,47)" stroke-width="1" opacity="0.9882352941176471" d="M 61.5 59 L 64 60 L 63.5 62 L 61.5 59 Z " /><path fill="rgb(249,193,47)" stroke="rgb(249,193,47)" stroke-width="1" opacity="0.9882352941176471" d="M 80.5 65 L 81.5 67 L 80.5 65 Z " /><path fill="rgb(249,193,47)" stroke="rgb(249,193,47)" stroke-width="1" opacity="0.9882352941176471" d="M 84.5 69 L 88 70.5 L 85.5 71 L 84.5 69 Z " /><path fill="rgb(249,193,47)" stroke="rgb(249,193,47)" stroke-width="1" opacity="0.9882352941176471" d="M 55.5 72 L 59.5 77 L 55.5 72 Z " /><path fill="rgb(249,193,47)" stroke="rgb(249,193,47)" stroke-width="1" opacity="0.9882352941176471" d="M 64.5 81 L 67.5 85 L 64.5 81 Z " /><path fill="rgb(249,193,47)" stroke="rgb(249,193,47)" stroke-width="1" opacity="0.9882352941176471" d="M 50.5 82 L 51.5 84 L 50.5 82 Z " /><path fill="rgb(249,193,47)" stroke="rgb(249,193,47)" stroke-width="1" opacity="0.9882352941176471" d="M 34.5 85 L 35.5 87 L 34.5 85 Z " /><path fill="rgb(249,193,47)" stroke="rgb(249,193,47)" stroke-width="1" opacity="0.9882352941176471" d="M 69.5 86 L 70.5 88 L 69.5 86 Z " /><path fill="rgb(249,193,47)" stroke="rgb(249,193,47)" stroke-width="1" opacity="0.9882352941176471" d="M 37.5 88 L 58 106.5 L 48.5 98 Q 40.5 94.8 37.5 88 Z " /><path fill="rgb(249,193,47)" stroke="rgb(249,193,47)" stroke-width="1" opacity="0.9882352941176471" d="M 60.5 108 L 61.5 110 L 60.5 108 Z " /><path fill="rgb(249,194,56)" stroke="rgb(249,194,56)" stroke-width="1" opacity="1" d="M 61.5 11 Q 67.8 9.8 69 13.5 L 76 25.5 L 75 29.5 Q 75.8 31.8 79.5 31 L 84 35.5 Q 87 38.5 87 44.5 L 89.5 47 L 97 52.5 L 92.5 49 Q 87.4 49.6 86 46.5 Q 85.3 37.3 79.5 33 Q 72.2 30.4 74 36.5 L 84 48.5 L 87 55.5 L 93 61.5 L 95 67.5 L 92.5 71 L 93 69.5 L 92 62.5 L 76 41.5 L 70.5 31 L 65 26.5 L 59 16.5 L 59 13.5 L 61.5 11 Z M 61 12 L 60 15 Q 62 22 67 27 Q 66 29 69 28 L 69 30 Q 73 31 72 29 L 72 27 L 73 25 Q 72 17 67 14 L 67 12 L 61 12 Z " /><path fill="rgb(249,194,56)" stroke="rgb(249,194,56)" stroke-width="1" opacity="1" d="M 34.5 19 L 38.5 19 L 46 25.5 L 53 38 Q 58.6 39.5 62 44.5 L 57.5 41 L 55.5 40 L 51 43.5 L 52 48.5 L 62.5 59 L 65 60.5 Q 66.2 68.8 72.5 72 L 76 74.5 Q 80.4 78.1 81 85.5 L 78.5 89 L 78 87.5 Q 80.3 86.2 79 81.5 L 67 67.5 L 64 60 L 59 57.5 Q 59.8 55.3 57.5 56 L 52 50.5 Q 49.2 48.8 50 43.5 L 44.5 38 L 38 33.5 L 32 26.5 L 32 21.5 L 34.5 19 Z M 34 20 Q 33 27 37 30 L 47 39 L 48 39 L 50 36 L 45 26 L 39 20 L 34 20 Z " /><path fill="rgb(249,194,56)" stroke="rgb(249,194,56)" stroke-width="1" opacity="1" d="M 147.5 35 Q 152.3 35.3 154 38.5 Q 154 47.5 147.5 50 L 144 51 L 138 59.5 L 138 71.5 L 138.5 73 L 137 71.5 L 137 57.5 L 140 54.5 L 144 46 L 149 46 Q 147.9 43.3 150.5 44 Q 152.8 43.3 152 39.5 L 151 37 Q 147.2 37.8 147.5 35 Z " /><path fill="rgb(249,194,56)" stroke="rgb(249,194,56)" stroke-width="1" opacity="1" d="M 143.5 36 L 146 36.5 L 140 39 L 135 47.5 L 133 62.5 L 126.5 71 L 125 70.5 L 130 66.5 L 133 59.5 L 134 47.5 L 141.5 37 L 143.5 36 Z " /><path fill="rgb(249,194,56)" stroke="rgb(249,194,56)" stroke-width="1" opacity="1" d="M 25.5 46 Q 32 45 33 49.5 L 30.5 48 L 26.5 47 Q 23.5 47.5 24 51.5 L 35.5 64 L 40 66.5 L 41 71.5 L 47.5 78 L 53 82.5 L 63.5 95 L 69 99.5 Q 71.8 102.2 71 108.5 L 68 110.5 Q 71.3 109.3 70 103.5 L 63.5 96 L 54 87.5 L 48.5 80 L 40 72.5 Q 39.4 66.2 34.5 64 L 30 60.5 Q 30.8 58.3 28.5 59 L 23 52.5 L 23 49.5 L 25.5 46 Z " /><path fill="rgb(249,194,56)" stroke="rgb(249,194,56)" stroke-width="1" opacity="1" d="M 63.5 47 L 70 56 L 73 57.5 L 71.5 57 L 69.5 56 L 68 56.5 L 68 54.5 L 63.5 47 Z " /><path fill="rgb(249,194,56)" stroke="rgb(249,194,56)" stroke-width="1" opacity="1" d="M 34.5 50 L 36.5 53 L 34.5 50 Z " /><path fill="rgb(249,194,56)" stroke="rgb(249,194,56)" stroke-width="1" opacity="1" d="M 37.5 54 L 59.5 77 L 64 80.5 L 60.5 78 L 51 69.5 L 45.5 63 L 41 59.5 L 37.5 54 Z " /><path fill="rgb(249,194,56)" stroke="rgb(249,194,56)" stroke-width="1" opacity="1" d="M 98.5 56 L 104.5 63 Q 109.9 70.1 119.5 73 L 123.5 71 L 122.5 73 L 119 75.5 L 117.5 79 L 115 78 Q 116.1 75.3 113.5 76 L 114 74.5 L 106.5 65 L 102 62.5 L 98.5 56 Z " /><path fill="rgb(249,194,56)" stroke="rgb(249,194,56)" stroke-width="1" opacity="1" d="M 77.5 62 L 79.5 65 L 77.5 62 Z " /><path fill="rgb(249,194,56)" stroke="rgb(249,194,56)" stroke-width="1" opacity="1" d="M 80.5 66 L 81.5 68 L 80.5 66 Z " /><path fill="rgb(249,194,56)" stroke="rgb(249,194,56)" stroke-width="1" opacity="1" d="M 83.5 69 L 84.5 71 L 83.5 69 Z " /><path fill="rgb(249,194,56)" stroke="rgb(249,194,56)" stroke-width="1" opacity="1" d="M 138.5 74 L 139 79.5 L 138 79.5 L 138.5 74 Z " /><path fill="rgb(249,194,56)" stroke="rgb(249,194,56)" stroke-width="1" opacity="1" d="M 139.5 81 L 140 88.5 L 139 88.5 L 139.5 81 Z " /><path fill="rgb(249,194,56)" stroke="rgb(249,194,56)" stroke-width="1" opacity="1" d="M 27.5 84 L 32.5 84 L 37 87 L 44.5 96 L 47 97.5 L 45.5 97 Q 42.5 96.5 44 103.5 Q 46.5 108.3 53 108 Q 53.3 114.4 58.5 117 Q 66 117.5 69 122.5 Q 72.6 130.9 79.5 136 L 82 137.5 L 80.5 137 L 76 135 L 68 123 L 55 115.5 L 50.5 109 L 43 104.5 L 40.5 98 Q 31 96.4 26 90.5 L 25 87.5 L 27.5 84 Z M 29 85 Q 26 86 27 90 L 31 93 L 38 94 L 40 96 Q 43 97 42 95 L 33 85 L 29 85 Z " /><path fill="rgb(249,194,56)" stroke="rgb(249,194,56)" stroke-width="1" opacity="1" d="M 66.5 84 L 69.5 88 L 66.5 84 Z " /><path fill="rgb(249,194,56)" stroke="rgb(249,194,56)" stroke-width="1" opacity="1" d="M 140.5 92 L 141 101.5 L 138 111.5 L 132.5 118 Q 129 121.5 122.5 122 L 119 125.5 Q 117.9 132.9 112.5 136 L 105.5 141 L 91.5 142 L 91.5 141 Q 99.8 142.3 104.5 140 Q 112 137 116 130.5 Q 116 123 120.5 120 Q 132.9 119.9 137 111.5 L 139 107.5 L 140.5 92 Z " /><path fill="rgb(249,194,56)" stroke="rgb(249,194,56)" stroke-width="1" opacity="1" d="M 48.5 98 L 49.5 100 L 48.5 98 Z " /><path fill="rgb(249,194,56)" stroke="rgb(249,194,56)" stroke-width="1" opacity="1" d="M 53.5 103 L 56.5 107 L 53.5 103 Z " /><path fill="rgb(249,194,56)" stroke="rgb(249,194,56)" stroke-width="1" opacity="1" d="M 58.5 107 L 60.5 110 L 58.5 107 Z " /><path fill="rgb(249,194,56)" stroke="rgb(249,194,56)" stroke-width="1" opacity="1" d="M 85.5 139 L 90 140.5 L 87.5 141 L 85.5 139 Z " /><path fill="rgb(254,201,62)" stroke="rgb(254,201,62)" stroke-width="1" opacity="0.996078431372549" d="M 61.5 12 Q 67.6 10.8 67 13.5 Q 72.4 16.6 73 24.5 L 72 26.5 L 72 28.5 Q 72.7 31.5 69 30 L 69 28 Q 66.3 29.1 67 26.5 Q 61.2 22 60 14 Q 63.3 12.7 62 17.5 L 64 22 L 66.5 23 L 67 17.5 Q 64.3 16.4 65 13 Q 60.6 14 61.5 12 Z " /><path fill="rgb(254,201,62)" stroke="rgb(254,201,62)" stroke-width="1" opacity="0.996078431372549" d="M 34 20 L 38.5 20 L 45 25.5 L 50 35.5 L 48 39 L 46.5 39 L 37 29.5 Q 32.7 27 34 20 Z M 35 21 L 38 29 Q 39 32 43 31 L 42 29 L 44 29 L 44 27 L 38 21 L 35 21 Z " /><path fill="rgb(254,201,62)" stroke="rgb(254,201,62)" stroke-width="1" opacity="0.996078431372549" d="M 74 33 Q 81.2 31.5 83 36.5 L 87.5 48 Q 94.8 48.2 97 53.5 L 103.5 64 L 111 69.5 L 114 74.5 L 113.5 76 L 116.5 78 Q 117.8 80.3 119 77.5 Q 118.5 73.5 121.5 73 L 124.5 71 L 123 73.5 L 118 87.5 L 114.5 93 L 107.5 95 L 95.5 96 Q 92.8 94.8 94 89.5 L 96 82.5 L 100.5 76 L 102 76 L 102 74 Q 104.7 75.1 104 72.5 Q 106.5 71 103 69.5 Q 103.8 67.3 101.5 68 L 93 51 L 89.5 50 L 85 52 L 84 48.5 L 75 38.5 L 74 33 Z M 77 36 Q 75 39 79 41 Q 81 42 80 39 L 77 36 Z " /><path fill="rgb(254,201,62)" stroke="rgb(254,201,62)" stroke-width="1" opacity="0.996078431372549" d="M 146.5 36 L 151 37 L 152 42.5 L 150 43.5 L 151 40.5 L 146.5 36 Z " /><path fill="rgb(254,201,62)" stroke="rgb(254,201,62)" stroke-width="1" opacity="0.996078431372549" d="M 143.5 37 L 145 37.5 L 142.5 39 L 143.5 37 Z " /><path fill="rgb(254,201,62)" stroke="rgb(254,201,62)" stroke-width="1" opacity="0.996078431372549" d="M 55.5 40 L 63 46.5 L 70.5 57 L 77 61.5 L 74.5 60 L 70 58 L 67 64.5 L 67.5 66 L 63.5 59 L 52 48.5 L 51 43.5 L 55.5 40 Z M 57 42 L 52 47 L 53 49 L 58 52 L 62 49 L 61 46 L 57 42 Z " /><path fill="rgb(254,201,62)" stroke="rgb(254,201,62)" stroke-width="1" opacity="0.996078431372549" d="M 138.5 42 L 137.5 44 L 138.5 42 Z " /><path fill="rgb(254,201,62)" stroke="rgb(254,201,62)" stroke-width="1" opacity="0.996078431372549" d="M 144.5 45 L 149 45.5 L 144 46 L 140 54.5 L 137 57.5 L 137 71.5 L 139 80.5 L 139 88.5 L 140 89.5 L 140 101.5 L 137 111.5 L 130.5 118 Q 127.2 120.7 120.5 120 L 118 122.5 Q 117 134 108.5 138 Q 102.6 142.6 90.5 141 Q 78.9 138.1 73 129.5 L 65.5 119 Q 57.3 118.3 54 112.5 L 53 108 Q 46.5 108.3 44 103.5 Q 42.5 96.5 45.5 97 L 53 102.5 L 56.5 107 L 65.5 112 L 71 108.5 L 71.5 105 L 72 111.5 Q 70.3 114.8 63.5 113 L 58.5 109 L 56.5 109 L 57 110.5 L 59.5 114 L 62.5 115 L 64.5 115 Q 68.3 114.3 69 116.5 Q 71.7 126.8 78.5 133 L 90.5 139 L 101.5 139 Q 108.9 136.4 113 130.5 L 114 124.5 Q 110.8 122 112 116 L 116.5 114 L 124.5 117 Q 132.8 115.8 136 109.5 Q 139.6 101.6 138 88.5 L 135 72.5 L 135 64.5 L 133.5 63 L 131.5 66 L 132 64.5 Q 134.9 59.9 134.5 52 L 135 56 L 139 53.5 Q 139.7 47.2 144.5 45 Z M 46 99 L 47 102 Q 46 104 49 103 L 49 105 L 53 105 L 46 99 Z " /><path fill="rgb(254,201,62)" stroke="rgb(254,201,62)" stroke-width="1" opacity="0.996078431372549" d="M 26.5 47 Q 33.9 48.1 37 53.5 L 44.5 63 L 51 68.5 L 59.5 78 L 66 83.5 L 69.5 88 L 73 89.5 L 70.5 90 L 61.5 80 L 58.5 79 L 54.5 85 L 48.5 78 L 41 71.5 L 38.5 65 L 35.5 64 L 25 53.5 L 24 49.5 L 26.5 47 Z M 27 48 L 26 51 L 28 55 L 33 56 L 34 53 L 27 48 Z M 46 65 L 44 69 L 42 70 L 43 72 L 48 75 L 50 70 L 48 66 L 46 65 Z " /><path fill="rgb(254,201,62)" stroke="rgb(254,201,62)" stroke-width="1" opacity="0.996078431372549" d="M 93.5 62 L 95 64.5 L 94 64.5 L 93.5 62 Z " /><path fill="rgb(254,201,62)" stroke="rgb(254,201,62)" stroke-width="1" opacity="0.996078431372549" d="M 77.5 63 L 84.5 71 L 89 71.5 L 84.5 72 Q 78.9 68.2 77.5 63 Z " /><path fill="rgb(254,201,62)" stroke="rgb(254,201,62)" stroke-width="1" opacity="0.996078431372549" d="M 95.5 66 L 96 67.5 L 92.5 72 L 90 71.5 L 94 69.5 L 95.5 66 Z " /><path fill="rgb(254,201,62)" stroke="rgb(254,201,62)" stroke-width="1" opacity="0.996078431372549" d="M 76.5 74 L 79 77.5 L 76 75.5 L 76.5 74 Z " /><path fill="rgb(254,201,62)" stroke="rgb(254,201,62)" stroke-width="1" opacity="0.996078431372549" d="M 28.5 85 L 32.5 85 L 42 94.5 Q 42.8 97.1 39.5 96 L 37.5 94 L 30.5 93 L 27 89.5 Q 26.3 85.8 28.5 85 Z M 30 86 L 29 88 Q 31 87 30 90 L 31 90 Q 30 87 33 88 Q 34 85 30 86 Z M 34 88 Q 32 91 35 90 L 34 88 Z " /><path fill="rgb(254,201,62)" stroke="rgb(254,201,62)" stroke-width="1" opacity="0.996078431372549" d="M 61.5 92 L 63.5 95 L 61.5 92 Z " /><path fill="rgb(254,211,91)" stroke="rgb(254,211,91)" stroke-width="1" opacity="1" d="M 88 53 L 93 55 Q 94.5 58.8 91.5 58 L 88 55.5 L 88 53 Z " /><path fill="rgb(254,211,91)" stroke="rgb(254,211,91)" stroke-width="1" opacity="1" d="M 72.5 60 L 76 62.5 L 78 67.5 Q 77.3 70.8 72.5 70 Q 68.5 69.5 69 64.5 L 72.5 60 Z " /><path fill="rgb(254,211,91)" stroke="rgb(254,211,91)" stroke-width="1" opacity="1" d="M 130.5 69 L 133 70.5 L 135 88.5 L 136 89.5 L 136 100.5 L 134 107.5 L 129.5 112 L 123.5 113 L 118 110 L 117 104.5 L 117 102.5 L 121 84.5 L 126 72 L 130.5 69 Z M 127 75 L 123 85 Q 123 92 120 97 L 121 106 L 125 109 L 130 108 L 133 105 L 134 100 L 134 91 L 133 90 L 132 77 Q 131 74 127 75 Z " /><path fill="rgb(254,211,91)" stroke="rgb(254,211,91)" stroke-width="1" opacity="1" d="M 86.5 74 Q 91.9 73.4 94 75 L 94 80.5 L 89.5 88 L 81 91 L 82 79.5 L 86.5 74 Z M 89 76 Q 84 79 83 85 L 85 87 L 88 86 L 91 80 L 91 78 Q 92 75 89 76 Z " /><path fill="rgb(254,211,91)" stroke="rgb(254,211,91)" stroke-width="1" opacity="1" d="M 60.5 82 L 64 84.5 L 63 89 L 60.5 90 L 57 86.5 L 58 85.5 Q 56.9 82.2 59.5 83 L 60.5 82 Z " /><path fill="rgb(254,211,91)" stroke="rgb(254,211,91)" stroke-width="1" opacity="1" d="M 73.5 92 L 79 93 Q 77.9 95.7 80.5 95 L 84 98.5 L 85 105.5 L 86.5 107 L 92 109 L 94 113.5 L 93 114.5 L 96.5 118 L 106.5 121 L 109 123.5 L 110 128.5 L 106.5 133 Q 102.5 138.5 91.5 137 Q 81.4 134.6 76 127.5 L 73 121.5 L 73 117.5 L 76 116 L 77 110.5 L 72 102.5 L 72 93.5 L 73.5 92 Z M 76 97 L 74 100 L 75 103 L 77 104 Q 78 98 76 97 Z M 83 113 L 81 115 Q 80 118 83 119 L 85 118 L 86 115 L 83 113 Z M 78 119 L 75 121 L 77 126 Q 82 132 91 135 L 95 134 L 101 135 L 100 134 L 105 130 L 102 126 L 100 123 L 94 121 Q 87 119 86 122 Q 80 122 78 119 Z " /><path fill="rgb(222,150,15)" stroke="rgb(222,150,15)" stroke-width="1" opacity="0.996078431372549" d="M 56 15 Q 59.7 13.7 58 19.5 L 89 60.5 L 92 67.5 Q 90.3 71.8 88.5 69 L 83 66.5 L 47 22.5 L 48 22.5 L 86.5 68 Q 91.1 69.3 89 63.5 L 61 28.5 L 56 20.5 L 56 15 Z " /><path fill="rgb(222,150,15)" stroke="rgb(222,150,15)" stroke-width="1" opacity="0.996078431372549" d="M 74.5 16 L 102 52.5 L 115.5 67 L 122.5 68 L 126 65.5 L 129 59.5 Q 127.8 51.2 130 46.5 L 137.5 37 L 139 37.5 L 133 44.5 L 131 60.5 L 126.5 68 Q 124.2 70.7 118.5 70 L 110 63.5 Q 89.8 41.3 74.5 16 Z " /><path fill="rgb(222,150,15)" stroke="rgb(222,150,15)" stroke-width="1" opacity="0.996078431372549" d="M 29.5 22 L 30 26.5 L 35 34.5 L 74 77.5 L 78 83.5 L 78 86.5 Q 77.3 88.8 73.5 88 L 64.5 78 L 74.5 87 L 76 83.5 L 32 33.5 Q 27.4 30 29.5 22 Z " /><path fill="rgb(222,150,15)" stroke="rgb(222,150,15)" stroke-width="1" opacity="0.996078431372549" d="M 157.5 40 L 158 42.5 Q 151.8 50.3 149 61.5 L 148 76.5 L 150 81.5 L 151 95.5 L 152 96.5 L 152 107.5 L 153 109.5 Q 150.3 111.2 152 117.5 L 149 125.5 Q 142.9 136.5 133.5 144 L 127.5 148 L 130.5 144 Q 132.8 144.8 132 142.5 L 130.5 143 L 113.5 153 L 98.5 154 L 80.5 145 Q 50.9 122.1 25 95.5 L 23 90.5 L 25 91.5 L 32.5 100 L 79.5 142 L 89.5 148 L 96.5 150 L 101.5 150 L 113.5 146 L 125.5 135 L 131 132 L 132.5 129 L 137.5 125 L 139 122 L 145 118.5 L 149 113.5 L 150 98.5 L 149 97.5 L 149 90.5 L 145 68.5 L 148 55.5 L 157.5 40 Z M 136 138 L 133 142 L 136 140 L 136 138 Z " /><path fill="rgb(222,150,15)" stroke="rgb(222,150,15)" stroke-width="1" opacity="0.996078431372549" d="M 36.5 48 L 50.5 63 L 36.5 48 Z " /><path fill="rgb(222,150,15)" stroke="rgb(222,150,15)" stroke-width="1" opacity="0.996078431372549" d="M 20.5 50 L 25 60.5 L 60.5 97 L 68 103.5 L 69 106.5 L 66.5 110 L 60.5 107 L 36 84.5 L 37.5 84 L 43 88 Q 41.9 90.7 44.5 90 L 63.5 108 L 66 108 L 66 104.5 L 21 58.5 Q 18.7 55.6 20.5 50 Z " /><path fill="rgb(222,150,15)" stroke="rgb(222,150,15)" stroke-width="1" opacity="0.996078431372549" d="M 51.5 64 L 63.5 77 L 51.5 64 Z " /><path fill="rgb(222,150,15)" stroke="rgb(222,150,15)" stroke-width="1" opacity="0.996078431372549" d="M 125.5 148 L 124.5 150 L 125.5 148 Z " /><path fill="rgb(255,214,102)" stroke="rgb(255,214,102)" stroke-width="1" opacity="1" d="M 127 75 Q 130.8 74 132 76.5 L 133 89.5 L 134 90.5 L 134 99.5 L 133 104.5 L 129.5 108 L 124.5 109 L 121 105.5 L 120 96.5 Q 123.2 92.2 123 84.5 L 127 75 Z " /><path fill="rgb(255,214,102)" stroke="rgb(255,214,102)" stroke-width="1" opacity="1" d="M 88.5 76 Q 91.8 74.9 91 77.5 L 91 79.5 L 87.5 86 L 84.5 87 L 83 84.5 Q 84.3 78.8 88.5 76 Z " /><path fill="rgb(255,214,102)" stroke="rgb(255,214,102)" stroke-width="1" opacity="1" d="M 75.5 97 Q 78.3 98.3 77 103.5 L 75 102.5 L 74 99.5 L 75.5 97 Z " /><path fill="rgb(255,214,102)" stroke="rgb(255,214,102)" stroke-width="1" opacity="1" d="M 77.5 119 Q 79.5 122.5 85.5 122 Q 87.3 119.3 93.5 121 L 99.5 123 L 102 125.5 L 105 129.5 L 100 133.5 L 100.5 135 L 94.5 134 L 90.5 135 Q 81.8 132.2 77 125.5 L 75 120.5 L 77.5 119 Z " /><path fill="rgb(233,168,28)" stroke="rgb(233,168,28)" stroke-width="1" opacity="0.984313725490196" d="M 69.5 11 L 101 53.5 L 114.5 68 L 118 69.5 L 116.5 70 L 101 55.5 L 79 26.5 L 69.5 11 Z " /><path fill="rgb(233,168,28)" stroke="rgb(233,168,28)" stroke-width="1" opacity="0.984313725490196" d="M 58.5 12 L 59 13.5 L 57 14.5 L 58.5 12 Z " /><path fill="rgb(233,168,28)" stroke="rgb(233,168,28)" stroke-width="1" opacity="0.984313725490196" d="M 58.5 17 L 60 21.5 L 89 59.5 L 85 56.5 L 61 24.5 Q 56.8 21.9 58.5 17 Z " /><path fill="rgb(233,168,28)" stroke="rgb(233,168,28)" stroke-width="1" opacity="0.984313725490196" d="M 40.5 18 L 47 22.5 L 54 32.5 L 83 65.5 L 80 63.5 L 41.5 19 L 40.5 18 Z " /><path fill="rgb(233,168,28)" stroke="rgb(233,168,28)" stroke-width="1" opacity="0.984313725490196" d="M 31.5 20 L 31 21.5 L 31 26.5 L 35 32.5 L 47 44.5 L 78 82.5 L 77 82.5 L 62 63.5 L 35 34.5 L 30 26.5 L 30 21.5 L 31.5 20 Z " /><path fill="rgb(233,168,28)" stroke="rgb(233,168,28)" stroke-width="1" opacity="0.984313725490196" d="M 144.5 34 L 147 34.5 Q 138.9 35.4 136 41.5 L 133.5 46 L 133 44.5 L 139 36 L 144.5 34 Z " /><path fill="rgb(233,168,28)" stroke="rgb(233,168,28)" stroke-width="1" opacity="0.984313725490196" d="M 153.5 35 L 158 39.5 L 156 41.5 L 153.5 46 L 154 44.5 L 156 38.5 L 153.5 35 Z " /><path fill="rgb(233,168,28)" stroke="rgb(233,168,28)" stroke-width="1" opacity="0.984313725490196" d="M 32.5 46 L 51 63.5 L 64 77.5 L 48 62.5 L 46.5 60 L 43 57.5 L 35.5 49 L 32.5 46 Z " /><path fill="rgb(233,168,28)" stroke="rgb(233,168,28)" stroke-width="1" opacity="0.984313725490196" d="M 22.5 47 L 22 48.5 Q 21.2 54.8 24 57.5 L 59.5 95 L 67 100.5 L 69 105.5 L 68 105.5 L 68 103.5 L 61.5 97 L 49 85.5 L 25 60.5 L 21 53.5 L 21 48.5 L 22.5 47 Z " /><path fill="rgb(233,168,28)" stroke="rgb(233,168,28)" stroke-width="1" opacity="0.984313725490196" d="M 132.5 47 L 133 51.5 L 132 51.5 L 132.5 47 Z " /><path fill="rgb(233,168,28)" stroke="rgb(233,168,28)" stroke-width="1" opacity="0.984313725490196" d="M 152.5 47 L 152 48.5 L 148 55.5 L 145 69.5 L 149 90.5 L 150 109.5 L 149 113.5 L 143.5 120 L 139 122 L 137.5 125 L 132.5 129 L 131 132 L 125.5 135 L 113.5 146 Q 107.2 150.2 96.5 150 Q 86.1 147.9 79.5 142 L 25 92.5 L 23 88.5 L 25 89.5 L 29.5 96 L 82.5 143 L 88.5 146 L 101.5 147 Q 110.8 145.3 116.5 140 L 140 117.5 L 144.5 110 L 147 108.5 L 147 88.5 L 144 73.5 L 144 65.5 L 146 62.5 L 147 55.5 L 152.5 47 Z " /><path fill="rgb(233,168,28)" stroke="rgb(233,168,28)" stroke-width="1" opacity="0.984313725490196" d="M 131.5 55 L 132 59.5 L 131 59.5 L 131.5 55 Z " /><path fill="rgb(233,168,28)" stroke="rgb(233,168,28)" stroke-width="1" opacity="0.984313725490196" d="M 89.5 61 L 90.5 63 L 89.5 61 Z " /><path fill="rgb(233,168,28)" stroke="rgb(233,168,28)" stroke-width="1" opacity="0.984313725490196" d="M 130.5 61 L 131 62.5 L 126.5 69 L 123.5 70 L 123.5 69 L 128 66.5 L 130.5 61 Z " /><path fill="rgb(233,168,28)" stroke="rgb(233,168,28)" stroke-width="1" opacity="0.984313725490196" d="M 91.5 68 L 92 70 L 90 69.5 L 91.5 68 Z " /><path fill="rgb(233,168,28)" stroke="rgb(233,168,28)" stroke-width="1" opacity="0.984313725490196" d="M 119.5 70 L 122 70.5 L 119.5 71 L 119.5 70 Z " /><path fill="rgb(233,168,28)" stroke="rgb(233,168,28)" stroke-width="1" opacity="0.984313725490196" d="M 65.5 80 L 72.5 88 L 65.5 80 Z " /><path fill="rgb(233,168,28)" stroke="rgb(233,168,28)" stroke-width="1" opacity="0.984313725490196" d="M 33.5 83 L 38 86.5 L 34.5 84 L 33.5 83 Z " /><path fill="rgb(233,168,28)" stroke="rgb(233,168,28)" stroke-width="1" opacity="0.984313725490196" d="M 39.5 87 L 60 106.5 L 48.5 96 L 39.5 87 Z " /><path fill="rgb(233,168,28)" stroke="rgb(233,168,28)" stroke-width="1" opacity="0.984313725490196" d="M 77.5 87 L 76.5 89 L 74 88.5 L 77.5 87 Z " /><path fill="rgb(233,168,28)" stroke="rgb(233,168,28)" stroke-width="1" opacity="0.984313725490196" d="M 61.5 107 L 62.5 109 L 61.5 107 Z " /></svg>